#!OML:ASF G:\JayActor3\Patient Classification 1\Patient 1\Session 5\male.ASF
:FULLY-SPECIFIED
:DEGREES
720
root -5.07517 14.3933 -5.38317 15.1774 87.0654 364.458
lowerback 32.3317 -0.967719 0.205539
upperback 6.80623 -0.592136 -1.18916
thorax -9.16415 0.0122279 -1.19745
lowerneck -4.2732 0.2824 2.16175
upperneck -9.6662 0.582656 0.421353
head -2.30696 0.305115 -0.239153
rclavicle 9.34288e-015 -5.56597e-015
rhumerus -20.6598 5.30565 -86.0282
rradius 46.6208
rwrist -3.16386
rhand -18.9483 -8.57353
rfingers 7.12502
rthumb 7.35502 -38.4257
lclavicle 9.34288e-015 -5.56597e-015
lhumerus -20.3777 -8.61436 83.0369
lradius 41.8341
lwrist 25.4946
lhand -18.4617 13.5105
lfingers 7.12502
lthumb 7.82472 43.3457
rfemur -64.5474 -4.19599 16.7506
rtibia 110.475
rfoot -6.59929 -5.27547
rtoes -14.1107
lfemur -56.6065 1.98372 -28.6523
ltibia 73.312
lfoot -26.7935 11.1975
ltoes -0.0526353
721
root -5.17118 14.4112 -5.37302 15.7923 87.0388 364.891
lowerback 31.9589 -0.962663 0.177369
upperback 7.20627 -0.604467 -1.17781
thorax -9.32291 -0.00624492 -1.25706
lowerneck -4.32972 0.294999 2.1655
upperneck -9.60694 0.596517 0.419968
head -2.27732 0.312298 -0.239869
rclavicle 9.93923e-016 -1.2921e-014
rhumerus -20.6696 5.3499 -86.0689
rradius 46.7252
rwrist -3.24363
rhand -18.9854 -8.70222
rfingers 7.12502
rthumb 7.31921 -38.5556
lclavicle 9.93923e-016 -1.2921e-014
lhumerus -20.3619 -8.53269 82.9787
lradius 41.8818
lwrist 25.5984
lhand -18.4471 13.5836
lfingers 7.12502
lthumb 7.83883 43.4182
rfemur -63.6821 -4.36889 16.6869
rtibia 110.619
rfoot -5.48808 -5.13574
rtoes -13.3281
lfemur -57.01 1.92627 -28.5943
ltibia 72.9058
lfoot -26.3344 11.1473
ltoes 0.0911561
722
root -5.26715 14.4288 -5.36235 16.5219 87.028 365.436
lowerback 31.8374 -0.961142 0.143741
upperback 7.17645 -0.622022 -1.20353
thorax -9.30002 -0.0163167 -1.25948
lowerneck -4.37997 0.306052 2.16169
upperneck -9.57024 0.609242 0.415264
head -2.25628 0.31929 -0.240453
rclavicle -4.77083e-015 -1.03368e-014
rhumerus -20.6878 5.40435 -86.0969
rradius 46.8245
rwrist -3.30008
rhand -19.0289 -8.71704
rfingers 7.12502
rthumb 7.2773 -38.5719
lclavicle -4.77083e-015 -1.03368e-014
lhumerus -20.3443 -8.45858 82.9301
lradius 41.9393
lwrist 25.7007
lhand -18.4268 13.6203
lfingers 7.12502
lthumb 7.85843 43.4542
rfemur -62.8203 -4.54406 16.6371
rtibia 110.663
rfoot -4.40164 -5.01719
rtoes -12.6119
lfemur -57.4094 1.86184 -28.5393
ltibia 72.489
lfoot -25.8663 11.0962
ltoes 0.174551
723
root -5.36303 14.4461 -5.35107 17.2832 87.026 366.014
lowerback 31.7174 -0.962327 0.11395
upperback 7.1463 -0.641283 -1.22656
thorax -9.2782 -0.0272083 -1.26045
lowerneck -4.41614 0.315256 2.15145
upperneck -9.55671 0.620825 0.4118
head -2.24539 0.325866 -0.239701
rclavicle -1.94809e-014 -2.06736e-014
rhumerus -20.7229 5.46597 -86.1193
rradius 46.9449
rwrist -3.36143
rhand -19.0607 -8.71184
rfingers 7.12502
rthumb 7.24659 -38.5678
lclavicle -1.94809e-014 -2.06736e-014
lhumerus -20.3312 -8.39304 82.8883
lradius 42.0041
lwrist 25.7955
lhand -18.4042 13.6215
lfingers 7.12502
lthumb 7.88025 43.4547
rfemur -61.9562 -4.71023 16.6058
rtibia 110.614
rfoot -3.4669 -4.89352
rtoes -12.059
lfemur -57.7993 1.80105 -28.4856
ltibia 72.0625
lfoot -25.3951 11.0424
ltoes 0.221173
724
root -5.45882 14.4627 -5.33904 18.0919 87.0328 366.648
lowerback 31.6028 -0.964734 0.0834569
upperback 7.11918 -0.661164 -1.24507
thorax -9.25524 -0.0381225 -1.25568
lowerneck -4.4294 0.321534 2.13627
upperneck -9.57316 0.629984 0.407692
head -2.24842 0.331313 -0.238514
rclavicle 1.19271e-014 2.50469e-014
rhumerus -20.771 5.541 -86.1327
rradius 47.0877
rwrist -3.43983
rhand -19.0773 -8.69469
rfingers 7.12502
rthumb 7.23053 -38.5512
lclavicle 1.19271e-014 2.50469e-014
lhumerus -20.3158 -8.33078 82.8562
lradius 42.0675
lwrist 25.8788
lhand -18.374 13.5896
lfingers 7.12502
lthumb 7.90942 43.4217
rfemur -61.0832 -4.86854 16.5932
rtibia 110.479
rfoot -2.78728 -4.74685
rtoes -11.778
lfemur -58.174 1.74529 -28.4347
ltibia 71.6315
lfoot -24.9311 10.978
ltoes 0.239149
725
root -5.55461 14.4784 -5.32604 18.8803 87.0456 367.275
lowerback 31.4957 -0.96578 0.0502679
upperback 7.09679 -0.678639 -1.25719
thorax -9.23016 -0.0475287 -1.24307
lowerneck -4.42504 0.32474 2.11593
upperneck -9.61219 0.636071 0.401904
head -2.26201 0.335356 -0.237136
rclavicle -1.43125e-014 -2.16675e-014
rhumerus -20.8277 5.62442 -86.1365
rradius 47.2471
rwrist -3.52417
rhand -19.0743 -8.68261
rfingers 7.12502
rthumb 7.23345 -38.539
lclavicle -1.43125e-014 -2.16675e-014
lhumerus -20.2958 -8.27379 82.8355
lradius 42.1289
lwrist 25.9469
lhand -18.3277 13.5699
lfingers 7.12502
lthumb 7.95408 43.4002
rfemur -60.1977 -5.01335 16.6052
rtibia 110.262
rfoot -2.39002 -4.57511
rtoes -11.7829
lfemur -58.5341 1.70294 -28.3832
ltibia 71.2024
lfoot -24.4827 10.8908
ltoes 0.251505
726
root -5.65067 14.4923 -5.31214 19.5383 87.0553 367.78
lowerback 31.3967 -0.963609 0.0209227
upperback 7.07427 -0.690482 -1.26773
thorax -9.20888 -0.054345 -1.23311
lowerneck -4.40402 0.325618 2.09395
upperneck -9.66195 0.639829 0.399056
head -2.28211 0.338111 -0.234649
rclavicle -4.96962e-015 -9.93923e-015
rhumerus -20.8973 5.70916 -86.1388
rradius 47.4168
rwrist -3.61209
rhand -19.0681 -8.65832
rfingers 7.12502
rthumb 7.23943 -38.5145
lclavicle -4.96962e-015 -9.93923e-015
lhumerus -20.2755 -8.2326 82.8211
lradius 42.1852
lwrist 26.0116
lhand -18.2763 13.5502
lfingers 7.12502
lthumb 8.00366 43.3787
rfemur -59.3155 -5.12515 16.645
rtibia 109.972
rfoot -2.23635 -4.39665
rtoes -11.9596
lfemur -58.895 1.68282 -28.328
ltibia 70.7865
lfoot -24.0539 10.7817
ltoes 0.231223
